<?xml version="1.0" encoding="UTF-8" standalone="no"?>
<!DOCTYPE svg PUBLIC "-//W3C//DTD SVG 1.1//EN"
 "http://www.w3.org/Graphics/SVG/1.1/DTD/svg11.dtd">
<!-- Generated by graphviz version 5.0.0 (20220707.1540)
 -->
<!-- Title: dependencies Pages: 1 -->
<svg width="1397pt" height="247pt"
 viewBox="0.00 0.00 1397.00 246.80" xmlns="http://www.w3.org/2000/svg" xmlns:xlink="http://www.w3.org/1999/xlink">
<g id="graph0" class="graph" transform="scale(1 1) rotate(0) translate(4 242.8)">
<title>dependencies</title>
<polygon fill="white" stroke="transparent" points="-4,4 -4,-242.8 1393,-242.8 1393,4 -4,4"/>
<text text-anchor="middle" x="694.5" y="-8.2" font-family="sans-serif" font-size="14.00">dependencies</text>
<g id="clust1" class="cluster">
<title>cluster_AppModule</title>
<polygon fill="none" stroke="black" stroke-dasharray="1,5" points="8,-32.8 8,-230.8 1381,-230.8 1381,-32.8 8,-32.8"/>
</g>
<g id="clust2" class="cluster">
<title>cluster_AppModule_declarations</title>
<polygon fill="none" stroke="black" points="470,-40.8 470,-92.8 1373,-92.8 1373,-40.8 470,-40.8"/>
</g>
<g id="clust9" class="cluster">
<title>cluster_AppModule_imports</title>
<polygon fill="none" stroke="black" points="318,-40.8 318,-92.8 462,-92.8 462,-40.8 318,-40.8"/>
</g>
<g id="clust11" class="cluster">
<title>cluster_AppModule_bootstrap</title>
<polygon fill="none" stroke="black" points="613,-170.8 613,-222.8 737,-222.8 737,-170.8 613,-170.8"/>
</g>
<g id="clust12" class="cluster">
<title>cluster_AppModule_providers</title>
<polygon fill="none" stroke="black" points="16,-40.8 16,-92.8 310,-92.8 310,-40.8 16,-40.8"/>
</g>
<!-- AppComponent -->
<g id="node1" class="node">
<title>AppComponent</title>
<polygon fill="#ffffb3" stroke="black" points="1364.94,-84.8 1259.06,-84.8 1259.06,-48.8 1364.94,-48.8 1364.94,-84.8"/>
<text text-anchor="middle" x="1312" y="-62.6" font-family="Times,serif" font-size="14.00">AppComponent</text>
</g>
<!-- AppModule -->
<g id="node7" class="node">
<title>AppModule</title>
<polygon fill="#8dd3c7" stroke="black" points="716.66,-149.8 713.66,-153.8 692.66,-153.8 689.66,-149.8 633.34,-149.8 633.34,-113.8 716.66,-113.8 716.66,-149.8"/>
<text text-anchor="middle" x="675" y="-127.6" font-family="Times,serif" font-size="14.00">AppModule</text>
</g>
<!-- AppComponent&#45;&gt;AppModule -->
<g id="edge1" class="edge">
<title>AppComponent&#45;&gt;AppModule</title>
<path fill="none" stroke="black" d="M1312,-84.81C1312,-107.29 1312,-142.8 1312,-142.8 1312,-142.8 726.8,-142.8 726.8,-142.8"/>
<polygon fill="black" stroke="black" points="726.8,-139.3 716.8,-142.8 726.8,-146.3 726.8,-139.3"/>
</g>
<!-- CoordinatordashboardComponent -->
<g id="node2" class="node">
<title>CoordinatordashboardComponent</title>
<polygon fill="#ffffb3" stroke="black" points="1241.02,-84.8 1034.98,-84.8 1034.98,-48.8 1241.02,-48.8 1241.02,-84.8"/>
<text text-anchor="middle" x="1138" y="-62.6" font-family="Times,serif" font-size="14.00">CoordinatordashboardComponent</text>
</g>
<!-- CoordinatordashboardComponent&#45;&gt;AppModule -->
<g id="edge2" class="edge">
<title>CoordinatordashboardComponent&#45;&gt;AppModule</title>
<path fill="none" stroke="black" d="M1138,-84.93C1138,-105.37 1138,-135.8 1138,-135.8 1138,-135.8 726.9,-135.8 726.9,-135.8"/>
<polygon fill="black" stroke="black" points="726.9,-132.3 716.9,-135.8 726.9,-139.3 726.9,-132.3"/>
</g>
<!-- DashboardComponent -->
<g id="node3" class="node">
<title>DashboardComponent</title>
<polygon fill="#ffffb3" stroke="black" points="1016.98,-84.8 875.02,-84.8 875.02,-48.8 1016.98,-48.8 1016.98,-84.8"/>
<text text-anchor="middle" x="946" y="-62.6" font-family="Times,serif" font-size="14.00">DashboardComponent</text>
</g>
<!-- DashboardComponent&#45;&gt;AppModule -->
<g id="edge3" class="edge">
<title>DashboardComponent&#45;&gt;AppModule</title>
<path fill="none" stroke="black" d="M946,-85.07C946,-103.36 946,-128.8 946,-128.8 946,-128.8 726.75,-128.8 726.75,-128.8"/>
<polygon fill="black" stroke="black" points="726.75,-125.3 716.75,-128.8 726.75,-132.3 726.75,-125.3"/>
</g>
<!-- JobsComponent -->
<g id="node4" class="node">
<title>JobsComponent</title>
<polygon fill="#ffffb3" stroke="black" points="857.23,-84.8 750.77,-84.8 750.77,-48.8 857.23,-48.8 857.23,-84.8"/>
<text text-anchor="middle" x="804" y="-62.6" font-family="Times,serif" font-size="14.00">JobsComponent</text>
</g>
<!-- JobsComponent&#45;&gt;AppModule -->
<g id="edge4" class="edge">
<title>JobsComponent&#45;&gt;AppModule</title>
<path fill="none" stroke="black" d="M804,-84.81C804,-100.85 804,-121.8 804,-121.8 804,-121.8 726.88,-121.8 726.88,-121.8"/>
<polygon fill="black" stroke="black" points="726.88,-118.3 716.88,-121.8 726.88,-125.3 726.88,-118.3"/>
</g>
<!-- LoginComponent -->
<g id="node5" class="node">
<title>LoginComponent</title>
<polygon fill="#ffffb3" stroke="black" points="732.27,-84.8 617.73,-84.8 617.73,-48.8 732.27,-48.8 732.27,-84.8"/>
<text text-anchor="middle" x="675" y="-62.6" font-family="Times,serif" font-size="14.00">LoginComponent</text>
</g>
<!-- LoginComponent&#45;&gt;AppModule -->
<g id="edge5" class="edge">
<title>LoginComponent&#45;&gt;AppModule</title>
<path fill="none" stroke="black" d="M675,-84.91C675,-84.91 675,-103.79 675,-103.79"/>
<polygon fill="black" stroke="black" points="671.5,-103.79 675,-113.79 678.5,-103.79 671.5,-103.79"/>
</g>
<!-- SignupComponent -->
<g id="node6" class="node">
<title>SignupComponent</title>
<polygon fill="#ffffb3" stroke="black" points="599.51,-84.8 478.49,-84.8 478.49,-48.8 599.51,-48.8 599.51,-84.8"/>
<text text-anchor="middle" x="539" y="-62.6" font-family="Times,serif" font-size="14.00">SignupComponent</text>
</g>
<!-- SignupComponent&#45;&gt;AppModule -->
<g id="edge6" class="edge">
<title>SignupComponent&#45;&gt;AppModule</title>
<path fill="none" stroke="black" d="M539,-84.81C539,-100.85 539,-121.8 539,-121.8 539,-121.8 623.09,-121.8 623.09,-121.8"/>
<polygon fill="black" stroke="black" points="623.09,-125.3 633.09,-121.8 623.09,-118.3 623.09,-125.3"/>
</g>
<!-- AppComponent  -->
<g id="node9" class="node">
<title>AppComponent </title>
<polygon fill="#80b1d3" stroke="black" points="729.44,-214.8 620.56,-214.8 620.56,-178.8 729.44,-178.8 729.44,-214.8"/>
<text text-anchor="middle" x="675" y="-192.6" font-family="Times,serif" font-size="14.00">AppComponent </text>
</g>
<!-- AppModule&#45;&gt;AppComponent  -->
<g id="edge8" class="edge">
<title>AppModule&#45;&gt;AppComponent </title>
<path fill="none" stroke="black" stroke-dasharray="1,5" d="M675,-149.91C675,-149.91 675,-168.79 675,-168.79"/>
<polygon fill="black" stroke="black" points="671.5,-168.79 675,-178.79 678.5,-168.79 671.5,-168.79"/>
</g>
<!-- AppRoutingModule -->
<g id="node8" class="node">
<title>AppRoutingModule</title>
<polygon fill="#8dd3c7" stroke="black" points="454.28,-84.8 451.28,-88.8 430.28,-88.8 427.28,-84.8 325.72,-84.8 325.72,-48.8 454.28,-48.8 454.28,-84.8"/>
<text text-anchor="middle" x="390" y="-62.6" font-family="Times,serif" font-size="14.00">AppRoutingModule</text>
</g>
<!-- AppRoutingModule&#45;&gt;AppModule -->
<g id="edge7" class="edge">
<title>AppRoutingModule&#45;&gt;AppModule</title>
<path fill="none" stroke="black" d="M390,-85.07C390,-103.36 390,-128.8 390,-128.8 390,-128.8 623.25,-128.8 623.25,-128.8"/>
<polygon fill="black" stroke="black" points="623.25,-132.3 633.25,-128.8 623.25,-125.3 623.25,-132.3"/>
</g>
<!-- LoginService -->
<g id="node10" class="node">
<title>LoginService</title>
<ellipse fill="#fdb462" stroke="black" cx="239" cy="-66.8" rx="63.12" ry="18"/>
<text text-anchor="middle" x="239" y="-62.6" font-family="Times,serif" font-size="14.00">LoginService</text>
</g>
<!-- LoginService&#45;&gt;AppModule -->
<g id="edge9" class="edge">
<title>LoginService&#45;&gt;AppModule</title>
<path fill="none" stroke="black" d="M239,-84.93C239,-105.37 239,-135.8 239,-135.8 239,-135.8 623.19,-135.8 623.19,-135.8"/>
<polygon fill="black" stroke="black" points="623.19,-139.3 633.19,-135.8 623.19,-132.3 623.19,-139.3"/>
</g>
<!-- SignupService -->
<g id="node11" class="node">
<title>SignupService</title>
<ellipse fill="#fdb462" stroke="black" cx="91" cy="-66.8" rx="67.22" ry="18"/>
<text text-anchor="middle" x="91" y="-62.6" font-family="Times,serif" font-size="14.00">SignupService</text>
</g>
<!-- SignupService&#45;&gt;AppModule -->
<g id="edge10" class="edge">
<title>SignupService&#45;&gt;AppModule</title>
<path fill="none" stroke="black" d="M91,-84.81C91,-107.29 91,-142.8 91,-142.8 91,-142.8 623,-142.8 623,-142.8"/>
<polygon fill="black" stroke="black" points="623,-146.3 633,-142.8 623,-139.3 623,-146.3"/>
</g>
</g>
</svg>
